<svg width="531" height="99" viewBox="0 0 531 99" fill="none" xmlns="http://www.w3.org/2000/svg">
<g clip-path="url(#clip0_1_6)">
<path d="M75.9365 3.26008C76.2027 1.78389 75.4042 0.710297 73.8073 0.710297H18.7135C17.3827 0.710297 16.4512 1.51549 16.3181 2.85748L0.215818 94.1128C-0.0503356 95.589 0.74814 96.6626 2.34506 96.6626H18.8466C20.3104 96.6626 21.1089 95.8574 21.242 94.5154L27.2304 61.0999H58.7696C60.1004 61.0999 60.8988 60.2947 61.165 58.9527L63.8265 44.325C63.9596 42.7146 63.2942 41.7752 61.6973 41.7752H30.6904L34.5496 20.035H71.0127C72.4765 20.035 73.275 19.364 73.4081 17.8878L75.9365 3.26008Z" fill="#089CF5"/>
<path d="M106.471 97.7362C107.402 97.602 107.935 96.931 108.201 95.589L110.33 82.8401C110.596 81.2297 109.798 80.5587 108.201 80.6929C107.402 80.6929 106.471 80.6929 105.539 80.6929C100.748 80.6929 99.1515 77.0696 100.349 70.628L112.06 3.26008C112.326 1.78389 111.528 0.710297 110.064 0.710297H94.6269C93.2961 0.710297 92.4976 1.51549 92.2315 2.85748L80.5207 69.5544C77.593 87.0003 85.0453 98.4072 99.4176 98.4072C102.212 98.4072 104.608 98.1388 106.471 97.7362Z" fill="#089CF5"/>
<path d="M127.829 50.7666L124.369 70.2254C121.308 87.6713 133.418 98.4072 150.851 98.4072C162.429 98.4072 171.478 95.1864 178.664 90.2211C179.862 89.5501 179.995 88.3423 179.463 87.0003L174.006 76.667C173.341 75.1908 172.276 75.0566 170.946 75.996C165.623 79.2168 159.501 81.3639 153.646 81.3639C146.326 81.3639 143.133 77.8748 144.463 70.7622L144.863 68.8834H181.858C183.189 68.8834 183.987 68.2124 184.253 66.8704L186.516 53.8531C190.109 34.1259 177.999 25.0003 160.965 25.0003C144.863 25.0003 131.023 33.1865 127.829 50.7666ZM166.687 55.4635H147.258L147.923 51.8401C149.121 45.5328 153.513 42.0436 159.235 42.0436C166.022 42.0436 168.284 46.7406 167.353 52.1085L166.687 55.4635Z" fill="#089CF5"/>
<path d="M243.796 26.8791C242.465 26.8791 241.667 27.2817 241.135 28.3553L228.759 48.7536L223.435 28.7579C223.036 27.4159 222.238 26.8791 220.907 26.8791H204.805C203.208 26.8791 202.542 27.8185 203.075 29.4289L214.386 60.4289L190.033 93.8444C188.969 95.3206 189.634 96.6626 191.63 96.6626H208.93C210.128 96.6626 211.059 96.1258 211.725 95.0522L225.032 75.1908L231.021 94.6496C231.42 95.9916 232.219 96.6626 233.549 96.6626H249.918C251.648 96.6626 252.446 95.589 251.781 93.9786L239.405 61.9051L262.028 29.5631C263.092 28.0869 262.427 26.8791 260.564 26.8791H243.796Z" fill="#089CF5"/>
<path d="M344.256 3.26008C344.522 1.78389 343.724 0.710297 342.127 0.710297H287.033C285.702 0.710297 284.771 1.51549 284.638 2.85748L268.535 94.1128C268.269 95.589 269.068 96.6626 270.665 96.6626H287.166C288.63 96.6626 289.428 95.8574 289.561 94.5154L295.55 61.0999H327.089C328.42 61.0999 329.218 60.2947 329.484 58.9527L332.146 44.325C332.279 42.7146 331.614 41.7752 330.017 41.7752H299.01L302.869 20.035H339.332C340.796 20.035 341.595 19.364 341.728 17.8878L344.256 3.26008Z" fill="#089CF5"/>
<path d="M395.061 26.8791C393.731 26.8791 392.799 27.5501 392.666 28.8921L383.75 79.351C381.887 80.1561 378.693 80.8271 375.499 80.8271C368.845 80.8271 365.918 76.9354 367.381 68.615L374.035 29.2947C374.302 27.8185 373.503 26.8791 372.039 26.8791H356.602C355.272 26.8791 354.473 27.5501 354.207 28.8921L347.553 66.602C344.226 85.5241 353.275 98.273 373.104 98.273C381.488 98.273 391.602 96.3942 399.852 93.0393C400.917 92.6367 401.582 91.8315 401.848 90.6237L412.628 29.2947C412.894 27.8185 412.228 26.8791 410.631 26.8791H395.061Z" fill="#089CF5"/>
<path d="M426.558 50.7666L423.098 70.2254C420.038 87.6713 432.148 98.4072 449.581 98.4072C461.158 98.4072 470.208 95.1864 477.394 90.2211C478.592 89.5501 478.724 88.3423 478.192 87.0003L472.736 76.667C472.071 75.1908 471.006 75.0566 469.675 75.996C464.352 79.2168 458.231 81.3639 452.375 81.3639C445.056 81.3639 441.862 77.8748 443.193 70.7622L443.592 68.8834H480.588C481.918 68.8834 482.717 68.2124 482.983 66.8704L485.245 53.8531C488.838 34.1259 476.728 25.0003 459.695 25.0003C443.592 25.0003 429.752 33.1865 426.558 50.7666ZM465.417 55.4635H445.988L446.653 51.8401C447.851 45.5328 452.242 42.0436 457.965 42.0436C464.751 42.0436 467.014 46.7406 466.082 52.1085L465.417 55.4635Z" fill="#089CF5"/>
<path d="M525.195 97.7362C526.126 97.602 526.659 96.931 526.925 95.589L529.054 82.8401C529.32 81.2297 528.522 80.5587 526.925 80.6929C526.126 80.6929 525.195 80.6929 524.263 80.6929C519.472 80.6929 517.876 77.0696 519.073 70.628L530.784 3.26008C531.05 1.78389 530.252 0.710297 528.788 0.710297H513.351C512.02 0.710297 511.222 1.51549 510.955 2.85748L499.245 69.5544C496.317 87.0003 503.769 98.4072 518.142 98.4072C520.936 98.4072 523.332 98.1388 525.195 97.7362Z" fill="#089CF5"/>
</g>
<defs>
<clipPath id="clip0_1_6">
<rect width="531" height="98.8575" fill="white" transform="translate(0 0.130005)"/>
</clipPath>
</defs>
</svg>
