<svg width="100" height="100" viewBox="0 0 100 100" fill="none" xmlns="http://www.w3.org/2000/svg">
<g clip-path="url(#clip0_1012_324)">
<g clip-path="url(#clip1_1012_324)">
<g clip-path="url(#clip2_1012_324)">
<g clip-path="url(#clip3_1012_324)">
<g clip-path="url(#clip4_1012_324)">
<g clip-path="url(#clip5_1012_324)">
<path d="M49.9999 79.4628C66.2717 79.4628 79.4627 66.2719 79.4627 50C79.4627 33.7282 66.2717 20.5372 49.9999 20.5372C33.728 20.5372 20.5371 33.7282 20.5371 50C20.5371 66.2719 33.728 79.4628 49.9999 79.4628Z" fill="#089CF5"/>
<g clip-path="url(#clip6_1012_324)">
<path d="M70.3895 49.4792V48.8282C70.3895 48.5694 70.18 48.3595 69.9208 48.3595C69.6616 48.3595 69.4521 48.5694 69.4521 48.8282V49.2969H68.5268V45.1773C68.5268 44.0955 67.647 43.2157 66.5652 43.2157H65.9366C64.8548 43.2157 63.975 44.0955 63.975 45.1773V49.2969H63.2841V43.0802C63.2841 41.9984 62.4043 41.1186 61.3229 41.1186H59.6454C58.5636 41.1186 57.6837 41.9984 57.6837 43.0802V46.9533H42.3152V42.8702C42.3152 41.7889 41.4354 40.9091 40.3535 40.9091H38.676C37.5942 40.9091 36.7144 41.7889 36.7144 42.8702V49.2969H36.0234V45.1773C36.0234 44.0955 35.1437 43.2157 34.0623 43.2157H33.4333C32.3519 43.2157 31.4721 44.0955 31.4721 45.1773V49.2969H30.5478V48.8282C30.5478 48.5694 30.3378 48.3595 30.0791 48.3595C29.8203 48.3595 29.6103 48.5694 29.6103 48.8282V49.4792C29.4674 49.6081 29.376 49.7928 29.376 50C29.376 50.2072 29.4674 50.3919 29.6103 50.5208V51.1718C29.6103 51.431 29.8203 51.6405 30.0791 51.6405C30.3378 51.6405 30.5478 51.431 30.5478 51.1718V50.7031H31.4731V54.8227C31.4731 55.9045 32.3529 56.7843 33.4342 56.7843H34.0632C35.1446 56.7843 36.0244 55.9045 36.0244 54.8227V50.7031H36.7153V56.9198C36.7153 58.0016 37.5951 58.8814 38.6769 58.8814H40.3545C41.4363 58.8814 42.3161 58.0016 42.3161 56.9198V53.0467H57.6852V57.1293C57.6852 58.2111 58.565 59.0909 59.6468 59.0909H61.3243C62.4057 59.0909 63.2855 58.2111 63.2855 57.1293V50.7031H63.9764V54.8227C63.9764 55.9045 64.8562 56.7843 65.938 56.7843H66.567C67.6489 56.7843 68.5287 55.9045 68.5287 54.8227V50.7031H69.4521V51.1718C69.4521 51.431 69.6616 51.6405 69.9208 51.6405C70.18 51.6405 70.3895 51.431 70.3895 51.1718V50.5203C70.5325 50.3919 70.6239 50.2072 70.6239 50C70.6239 49.7928 70.5325 49.6081 70.3895 49.4792ZM55.859 50.4687H44.1408C43.8821 50.4687 43.6721 50.2587 43.6721 50C43.6721 49.7413 43.8821 49.5313 44.1408 49.5313H55.859C56.1182 49.5313 56.3277 49.7413 56.3277 50C56.3277 50.2587 56.1182 50.4687 55.859 50.4687Z" fill="white"/>
</g>
</g>
<path d="M2.98636 66.1539L3.06056 66.3926L3.2993 66.3184L7.41767 65.0383L7.90492 66.6067L7.9791 66.8454L8.21784 66.7713L10.0593 66.1991L10.298 66.1249L10.2238 65.8862L9.73656 64.3177L10.7888 63.9905L11.3081 65.6617L11.3823 65.9004L11.6211 65.8263L13.4868 65.2466L13.7255 65.1724L13.6513 64.9337L12.4567 61.0897L12.3825 60.851L12.1438 60.9252L2.54982 63.907L2.31109 63.9812L2.38529 64.2199L2.98636 66.1539ZM12.4327 83.2339L12.5851 83.432L12.7832 83.2796L14.1357 82.2396L14.3339 82.0872L14.1815 81.889L13.0707 80.445L19.4832 75.5121L19.6814 75.3596L19.5289 75.1615L18.3029 73.5679L18.1504 73.3698L17.9523 73.5222L9.98945 79.6476L9.7913 79.8L9.94372 79.9981L12.4327 83.2339ZM25.9982 94.3721L26.21 94.505L26.3429 94.2933L27.3815 92.639L27.5144 92.4273L27.3027 92.2944L25.7326 91.3084L26.6921 89.78L28.0865 90.6553L28.2982 90.7882L28.4311 90.5765L29.4372 88.9736L29.5701 88.7619L29.3584 88.629L27.9644 87.7537L28.7371 86.5229L30.2011 87.4421L30.4128 87.575L30.5458 87.3633L31.5786 85.7179L31.7115 85.5062L31.4998 85.3733L28.0909 83.2329L27.8792 83.1L27.7462 83.3117L22.4044 91.8203L22.2715 92.032L22.4832 92.1649L25.9982 94.3721ZM40.4244 99.6202L40.6328 99.6602L40.7061 99.461L41.5494 97.17L41.4745 99.6081L41.468 99.821L41.6772 99.8612L43.6765 100.246L43.9764 100.303L43.9737 99.9978L43.9252 94.6055L45.6478 90.1742L45.7564 89.8947L45.4619 89.8381L43.5227 89.4652L43.3075 89.4239L43.2383 89.6317L42.6913 91.2731L42.7606 89.5353L42.7692 89.3205L42.558 89.2799L40.6259 88.9084L40.3318 88.8519L40.3287 89.1513L40.2785 93.9041L38.2306 98.8937L38.1145 99.1764L38.4147 99.2341L40.4244 99.6202ZM59.1776 99.8353L59.424 99.7927L59.3814 99.5464L58.6476 95.2967L60.2659 95.0171L60.5122 94.9745L60.4697 94.7282L60.1414 92.8278L60.0989 92.5815L59.8525 92.624L58.2342 92.9036L58.0465 91.8177L59.7709 91.5199L60.0172 91.4774L59.9747 91.231L59.6422 89.306L59.5996 89.0597L59.3533 89.1022L55.3872 89.7872L55.1408 89.8298L55.1834 90.0761L56.8934 99.9761L56.9359 100.222L57.1823 100.18L59.1776 99.8353ZM68.3656 85.6935L68.1504 85.8209L68.2778 86.036L72.0257 92.3642C72.5115 93.1844 73.0782 93.7356 73.7402 93.9587C74.415 94.1878 75.1393 94.0477 75.8907 93.6026C76.6421 93.1575 77.1131 92.5896 77.2366 91.8881C77.3591 91.2005 77.1481 90.4385 76.6623 89.6183L72.9148 83.2898L72.7875 83.0746L72.5723 83.202L70.8916 84.1974L70.6765 84.3248L70.8039 84.5399L74.5114 90.8006L74.5115 90.8007C74.673 91.0733 74.7571 91.276 74.7843 91.416L74.7846 91.4173C74.7943 91.4656 74.7872 91.4908 74.7802 91.5055C74.7722 91.5221 74.7516 91.5507 74.6951 91.5843C74.6416 91.6159 74.6081 91.6197 74.5895 91.6185C74.5718 91.6173 74.5435 91.6102 74.502 91.5758C74.3883 91.4791 74.2519 91.3087 74.0967 91.0463L74.0966 91.0462L70.3891 84.7858L70.2617 84.5707L70.0466 84.6981L68.3656 85.6935ZM90.727 79.8757L90.8824 79.6799L90.6865 79.5245L89.1565 78.3106L88.9607 78.1552L88.8053 78.351L87.6529 79.8034L86.2392 78.6817L87.2624 77.3922L87.4177 77.1964L87.2219 77.041L85.7394 75.8645L85.5436 75.7091L85.3882 75.905L84.365 77.1945L83.2267 76.291L84.3009 74.9372L84.4563 74.7414L84.2605 74.586L82.7387 73.3785L82.5429 73.2231L82.3875 73.4189L79.8857 76.5721L79.7303 76.768L79.9261 76.9234L87.7961 83.1676L87.992 83.323L88.1474 83.1272L90.727 79.8757ZM98.2589 63.9695L98.3362 63.7317L98.0985 63.6544L96.4759 63.1269L96.2382 63.0496L96.1609 63.2873L95.5975 65.0196L87.9035 62.518L87.6657 62.4407L87.5884 62.6785L86.967 64.5906L86.8897 64.8283L87.1274 64.9056L96.6814 68.012L96.9191 68.0893L96.9964 67.8516L98.2589 63.9695Z" fill="white" stroke="black" stroke-width="0.5"/>
<path d="M11.6447 37.9524L11.7189 37.7136L11.4801 37.6395L7.36853 36.3622L7.8558 34.7934L7.92995 34.5547L7.69123 34.4805L5.8498 33.9084L5.61104 33.8342L5.53688 34.073L5.04961 35.6417L3.99708 35.3147L4.51509 33.6466L4.58923 33.4079L4.35052 33.3338L2.48838 32.7552L2.24961 32.681L2.17545 32.9198L0.983663 36.7569L0.909516 36.9956L1.14824 37.0698L10.7318 40.0473L10.9705 40.1215L11.0447 39.8828L11.6447 37.9524ZM19.6163 23.7113L19.7687 23.5132L19.5705 23.3608L18.2184 22.3208L18.0202 22.1683L17.8678 22.3665L16.7617 23.8048L10.357 18.8786L10.1588 18.7262L10.0064 18.9244L8.78066 20.5183L8.62828 20.7165L8.82642 20.8689L16.7814 26.9875L16.9796 27.1399L17.132 26.9417L19.6163 23.7113ZM30.8186 14.7207L31.0303 14.5877L30.8974 14.376L29.8606 12.7246L29.7276 12.5128L29.5159 12.6458L27.9458 13.6317L26.9881 12.1063L28.3793 11.2328L28.591 11.0999L28.4581 10.8881L27.4499 9.28242L27.3169 9.07069L27.1052 9.20363L25.7141 10.0771L24.9432 8.84918L26.4042 7.9321L26.616 7.79919L26.4831 7.58744L25.452 5.94494L25.3191 5.73319L25.1073 5.86613L21.7045 8.00256L21.4928 8.13548L21.6257 8.34721L26.9618 16.8469L27.0947 17.0586L27.3064 16.9257L30.8186 14.7207ZM42.1389 10.6959L42.3475 10.6557L42.3416 10.4434L42.2738 8.00989L43.1064 10.2959L43.1794 10.4961L43.3886 10.4559L45.3843 10.0719L45.6843 10.0142L45.5684 9.73158L43.5252 4.74903L43.486 -0.00206497L43.4835 -0.302167L43.1888 -0.245504L41.2495 0.127354L41.0342 0.168751L41.0471 0.387625L41.1492 2.11181L40.568 0.474586L40.4961 0.272133L40.2852 0.312716L38.3563 0.683787L38.0624 0.740308L38.1703 1.0194L39.882 5.44908L39.8321 10.8345L39.8292 11.14L40.1293 11.0823L42.1389 10.6959ZM57.6334 10.5124L57.8798 10.555L57.9223 10.3086L58.6551 6.06569L60.2738 6.34528L60.5201 6.38783L60.5627 6.14148L60.8909 4.24148L60.9335 3.99513L60.6871 3.95258L59.0685 3.67299L59.2562 2.58678L60.977 2.8842L61.2234 2.92679L61.2659 2.6804L61.5977 0.758968L61.6402 0.512629L61.3939 0.470077L57.4346 -0.213852L57.1883 -0.256407L57.1457 -0.0100533L55.4375 9.87923L55.3949 10.1256L55.6413 10.1681L57.6334 10.5124ZM69.8301 14.0622L69.8302 14.0628C69.9548 14.7622 70.4266 15.3294 71.1779 15.7741C71.9273 16.2182 72.6501 16.3584 73.3233 16.1316L73.3238 16.1314C73.9864 15.9065 74.553 15.3557 75.0378 14.5374L74.8246 14.4111L75.0379 14.5374L78.7822 8.21525L78.9096 8.00014L78.6945 7.87275L77.0137 6.87739L76.7986 6.75L76.6712 6.96511L72.9692 13.2159C72.8075 13.4883 72.6696 13.6611 72.558 13.7551C72.5212 13.7854 72.4965 13.791 72.4807 13.7918C72.463 13.7927 72.429 13.7886 72.3737 13.7558L72.373 13.7554C72.3171 13.7224 72.2972 13.6943 72.2895 13.678C72.2825 13.6632 72.2754 13.6371 72.2856 13.5867C72.3154 13.4407 72.3998 13.2378 72.5571 12.9725L72.5572 12.9724L76.2597 6.72133L76.387 6.50625L76.172 6.37884L74.4913 5.38313L74.2761 5.25568L74.1487 5.47082L70.4045 11.7929C69.9196 12.6113 69.709 13.3729 69.8301 14.0622ZM83.6233 27.1729L83.7787 27.3688L83.9746 27.2133L85.5021 26.0012L85.6979 25.8458L85.5425 25.65L84.3901 24.1976L85.8012 23.0784L86.8219 24.365L86.9773 24.5609L87.1732 24.4055L88.6585 23.2269L88.8543 23.0715L88.699 22.8757L87.6783 21.5891L88.8141 20.688L89.8862 22.0393L90.0416 22.2352L90.2374 22.0798L91.7564 20.8748L91.9522 20.7194L91.7968 20.5236L89.2997 17.3757L89.1443 17.1798L88.9485 17.3352L81.0863 23.5727L80.8905 23.7281L81.0458 23.924L83.6233 27.1729ZM89.6343 40.2445L89.7116 40.4822L89.9493 40.4049L91.5719 39.8774L91.8096 39.8001L91.7323 39.5623L91.1711 37.8365L98.8547 35.3385L99.0924 35.2612L99.0152 35.0234L98.3937 33.1113L98.3165 32.8735L98.0787 32.9508L88.5344 36.0537L88.2966 36.131L88.374 36.3687L89.6343 40.2445Z" fill="white" stroke="black" stroke-width="0.5"/>
<path d="M94.0305 50.7061C94.0305 49.9324 94.6577 49.3047 95.4319 49.3047C96.2056 49.3047 96.8333 49.9319 96.833 50.7061H94.0305ZM94.0305 50.7061C94.0305 51.48 94.6582 52.1072 95.4319 52.1072M94.0305 50.7061L95.4319 52.1072M95.4319 52.1072C96.2058 52.1075 96.8329 51.4798 96.833 50.7063L95.4319 52.1072ZM5.10797 49.3047C4.33378 49.3047 3.70654 49.9324 3.70654 50.7061L5.10797 52.1072C5.88224 52.1075 6.5094 51.4798 6.5094 50.7061C6.5094 49.9319 5.88171 49.3047 5.10797 49.3047Z" fill="white" stroke="black" stroke-width="0.5"/>
</g>
</g>
</g>
</g>
</g>
<defs>
<clipPath id="clip0_1012_324">
<rect width="100" height="100" fill="white"/>
</clipPath>
<clipPath id="clip1_1012_324">
<rect width="100" height="100" fill="white"/>
</clipPath>
<clipPath id="clip2_1012_324">
<rect width="100" height="100" fill="white"/>
</clipPath>
<clipPath id="clip3_1012_324">
<rect width="100" height="100" fill="white"/>
</clipPath>
<clipPath id="clip4_1012_324">
<rect width="100" height="100" fill="white"/>
</clipPath>
<clipPath id="clip5_1012_324">
<rect width="58.9256" height="58.9256" fill="white" transform="translate(20.5371 20.5372)"/>
</clipPath>
<clipPath id="clip6_1012_324">
<rect width="41.2479" height="41.2479" fill="white" transform="translate(29.376 29.3761)"/>
</clipPath>
</defs>
</svg>
